HIERARCHY
ROOT hip
{
  OFFSET 0 0 0
  CHANNELS 6 Xposition Yposition Zposition Zrotation Yrotation Xrotation
  JOINT abdomen
  {
    OFFSET 0 20.6881 -0.73152
    CHANNELS 3 Zrotation Xrotation Yrotation
    JOINT chest
    {
      OFFSET 0 11.7043 -0.48768
      CHANNELS 3 Zrotation Xrotation Yrotation
      JOINT neck
      {
        OFFSET 0 22.1894 -2.19456
        CHANNELS 3 Zrotation Xrotation Yrotation
        JOINT head
        {
          OFFSET -0.24384 7.07133 1.2192
          CHANNELS 3 Zrotation Xrotation Yrotation
          JOINT leftEye
          {
            OFFSET 4.14528 8.04674 8.04672
            CHANNELS 3 Zrotation Xrotation Yrotation
            End Site
            {
              OFFSET 1 0 0
            }
          }
          JOINT rightEye
          {
            OFFSET -3.6576 8.04674 8.04672
            CHANNELS 3 Zrotation Xrotation Yrotation
            End Site
            {
              OFFSET 1 0 0
            }
          }
        }
      }
      JOINT rCollar
      {
        OFFSET -2.68224 19.2634 -4.8768
        CHANNELS 3 Zrotation Xrotation Yrotation
        JOINT rShldr
        {
          OFFSET -8.77824 -1.95073 1.46304
          CHANNELS 3 Zrotation Xrotation Yrotation
          JOINT rForeArm
          {
            OFFSET -28.1742 -1.7115 0.48768
            CHANNELS 3 Zrotation Xrotation Yrotation
            JOINT rHand
            {
              OFFSET -22.5879 0.773209 7.07136
              CHANNELS 3 Zrotation Xrotation Yrotation
              JOINT rThumb1
              {
                OFFSET -1.2192 -0.487915 3.41376
                CHANNELS 3 Zrotation Xrotation Yrotation
                JOINT rThumb2
                {
                  OFFSET -3.37035 -0.52449 3.41376
                  CHANNELS 3 Zrotation Xrotation Yrotation
                  End Site
                  {
                    OFFSET -1.78271 -1.18214 1.43049
                  }
                }
              }
              JOINT rIndex1
              {
                OFFSET -7.75947 0.938293 5.60832
                CHANNELS 3 Zrotation Xrotation Yrotation
                JOINT rIndex2
                {
                  OFFSET -2.54057 -0.884171 1.56538
                  CHANNELS 3 Zrotation Xrotation Yrotation
                  End Site
                  {
                    OFFSET -1.62519 -0.234802 1.16502
                  }
                }
              }
              JOINT rMid1
              {
                OFFSET -8.24714 1.18213 3.41376
                CHANNELS 3 Zrotation Xrotation Yrotation
                JOINT rMid2
                {
                  OFFSET -3.10165 -0.590103 1.0647
                  CHANNELS 3 Zrotation Xrotation Yrotation
                  End Site
                  {
                    OFFSET -2.48547 -0.328903 0.83742
                  }
                }
              }
              JOINT rRing1
              {
                OFFSET -8.82822 0.546677 1.51678
                CHANNELS 3 Zrotation Xrotation Yrotation
                JOINT rRing2
                {
                  OFFSET -2.60934 -0.819778 -0.0198488
                  CHANNELS 3 Zrotation Xrotation Yrotation
                  End Site
                  {
                    OFFSET -2.33842 -0.294052 0.168128
                  }
                }
              }
              JOINT rPinky1
              {
                OFFSET -8.27202 -0.0477905 -0.4584
                CHANNELS 3 Zrotation Xrotation Yrotation
                JOINT rPinky2
                {
                  OFFSET -1.82734 -0.647385 -0.700984
                  CHANNELS 3 Zrotation Xrotation Yrotation
                  End Site
                  {
                    OFFSET -1.69225 -0.51767 -0.607171
                  }
                }
              }
            }
          }
        }
      }
      JOINT lCollar
      {
        OFFSET 2.68224 19.2634 -4.8768
        CHANNELS 3 Zrotation Xrotation Yrotation
        JOINT lShldr
        {
          OFFSET 8.77824 -1.95073 1.46304
          CHANNELS 3 Zrotation Xrotation Yrotation
          JOINT lForeArm
          {
            OFFSET 28.1742 -1.7115 0.48768
            CHANNELS 3 Zrotation Xrotation Yrotation
            JOINT lHand
            {
              OFFSET 22.5879 0.773209 7.07136
              CHANNELS 3 Zrotation Xrotation Yrotation
              JOINT lThumb1
              {
                OFFSET 1.2192 -0.487915 3.41376
                CHANNELS 3 Zrotation Xrotation Yrotation
                JOINT lThumb2
                {
                  OFFSET 3.37035 -0.52449 3.41376
                  CHANNELS 3 Zrotation Xrotation Yrotation
                  End Site
                  {
                    OFFSET 1.78271 -1.18214 1.43049
                  }
                }
              }
              JOINT lIndex1
              {
                OFFSET 7.75947 0.938293 5.60832
                CHANNELS 3 Zrotation Xrotation Yrotation
                JOINT lIndex2
                {
                  OFFSET 2.54057 -0.884171 1.56538
                  CHANNELS 3 Zrotation Xrotation Yrotation
                  End Site
                  {
                    OFFSET 1.62519 -0.234802 1.16502
                  }
                }
              }
              JOINT lMid1
              {
                OFFSET 8.24714 1.18213 3.41376
                CHANNELS 3 Zrotation Xrotation Yrotation
                JOINT lMid2
                {
                  OFFSET 3.10165 -0.590103 1.0647
                  CHANNELS 3 Zrotation Xrotation Yrotation
                  End Site
                  {
                    OFFSET 2.48547 -0.328903 0.83742
                  }
                }
              }
              JOINT lRing1
              {
                OFFSET 8.82822 0.546677 1.51678
                CHANNELS 3 Zrotation Xrotation Yrotation
                JOINT lRing2
                {
                  OFFSET 2.60934 -0.819778 -0.0198488
                  CHANNELS 3 Zrotation Xrotation Yrotation
                  End Site
                  {
                    OFFSET 2.33842 -0.294052 0.168128
                  }
                }
              }
              JOINT lPinky1
              {
                OFFSET 8.27202 -0.0477905 -0.4584
                CHANNELS 3 Zrotation Xrotation Yrotation
                JOINT lPinky2
                {
                  OFFSET 1.82734 -0.647385 -0.700984
                  CHANNELS 3 Zrotation Xrotation Yrotation
                  End Site
                  {
                    OFFSET 1.69225 -0.51767 -0.607171
                  }
                }
              }
            }
          }
        }
      }
    }
  }
  JOINT rButtock
  {
    OFFSET -8.77824 4.35084 1.2192
    CHANNELS 3 Zrotation Xrotation Yrotation
    JOINT rThigh
    {
      OFFSET 0 -1.70687 -2.19456
      CHANNELS 3 Zrotation Xrotation Yrotation
      JOINT rShin
      {
        OFFSET 0 -36.8199 0.73152
        CHANNELS 3 Zrotation Xrotation Yrotation
        JOINT rFoot
        {
          OFFSET 0.73152 -45.1104 -5.12064
          CHANNELS 3 Zrotation Xrotation Yrotation
          End Site
          {
            OFFSET -1.1221 -3.69964 12.103
          }
        }
      }
    }
  }
  JOINT lButtock
  {
    OFFSET 8.77824 4.35084 1.2192
    CHANNELS 3 Zrotation Xrotation Yrotation
    JOINT lThigh
    {
      OFFSET 0 -1.70687 -2.19456
      CHANNELS 3 Zrotation Xrotation Yrotation
      JOINT lShin
      {
        OFFSET 0 -36.8199 0.73152
        CHANNELS 3 Zrotation Xrotation Yrotation
        JOINT lFoot
        {
          OFFSET -0.73152 -45.1104 -5.12064
          CHANNELS 3 Zrotation Xrotation Yrotation
          End Site
          {
            OFFSET 1.1221 -3.69964 12.103
          }
        }
      }
    }
  }
}
MOTION
Frames:	4
Frame Time:	0.03333
-52.87424083799124 54.71349358558655 -44.003825914114714 -114.47859954833984 78.84416961669922 -164.7268524169922 3.713167190551758 22.037227630615234 -4.519594192504883 9.266143798828125 -11.52420425415039 -0.11451434344053268 -9.912291526794434 20.5399169921875 -15.581066131591797 20.59431266784668 -32.08819580078125 -28.417926788330078 0.6301859617233276 1.0154610872268677 -1.1303497552871704 0.002960000652819872 1.3715866804122925 0.03926388546824455 -1.410437822341919 0.050523459911346436 1.2662792205810547 54.472625732421875 26.197771072387695 -7.457211971282959 -28.87894630432129 -36.1928825378418 77.68209838867188 -0.8276733160018921 -16.348981857299805 -3.765479564666748 -1.5347709655761719 -1.2636927366256714 1.794645071029663 1.4341933727264404 -0.7564817070960999 -0.31436294317245483 -0.6480900645256042 0.5053058862686157 0.1785464733839035 8.175491333007812 4.247712135314941 0.2022150307893753 0.9159089922904968 -2.3040740489959717 0.09863534569740295 3.606886625289917 0.7810505032539368 0.21138454973697662 0.8016732335090637 1.358418583869934 0.5360547304153442 10.595355033874512 1.194614291191101 0.3705731928348541 -0.23473034799098969 -0.651470959186554 0.3684313893318176 2.467668056488037 -0.5922455191612244 -1.3996232748031616 0.17731110751628876 0.5010808706283569 0.5788561701774597 -63.832950592041016 51.908382415771484 -8.049049377441406 28.356706619262695 -34.91094970703125 -77.8804931640625 2.1820192337036133 -22.99439811706543 4.131643295288086 -1.3120166063308716 -0.5300989747047424 0.5496878027915955 -1.6263604164123535 -1.759710431098938 -1.4152134656906128 -0.2983438968658447 0.8659338355064392 2.0901293754577637 -7.2664055824279785 3.8125874996185303 -1.0515977144241333 0.7058186531066895 -0.16686749458312988 0.010658570565283298 -3.1475839614868164 1.0583709478378296 0.5985006093978882 1.5209885835647583 0.9474465250968933 -0.46110883355140686 -9.473715782165527 0.7076765298843384 -0.2767673432826996 -0.09447634220123291 1.3883405923843384 -0.41926780343055725 -0.267372190952301 -1.4403324127197266 0.7752870917320251 0.3771885335445404 -0.7093566656112671 -1.039443016052246 -23.551681518554688 -38.20133590698242 -13.319633483886719 -0.8168742060661316 58.826236724853516 2.361283540725708 -0.6010679006576538 -11.663471221923828 -5.928472518920898 0.5902659893035889 -0.5111702084541321 -0.6010313630104065 54.16890335083008 -54.70584487915039 37.87740707397461 11.809778213500977 86.86050415039062 -14.342141151428223 -0.4689825773239136 -16.394636154174805 7.512188911437988
-54.678124003112316 54.7127366065979 -44.546452816575766 -116.47602844238281 78.55229949951172 -165.79576110839844 4.064785003662109 22.177640914916992 -4.570613861083984 9.289802551269531 -11.897380828857422 -0.005179694853723049 -9.982478141784668 20.706188201904297 -15.475785255432129 20.276103973388672 -32.63294219970703 -28.352027893066406 0.7019206881523132 0.9137666821479797 -1.0333867073059082 0.09655855596065521 1.2580828666687012 -0.06293428689241409 -1.58489191532135 0.20318065583705902 1.485629677772522 54.19071960449219 27.29718780517578 -7.131584644317627 -28.737091064453125 -36.675254821777344 78.21918487548828 -0.7215630412101746 -16.68802833557129 -3.7139129638671875 -1.659757375717163 -1.1446027755737305 1.5065020322799683 1.3448487520217896 -0.6893373727798462 -0.19324564933776855 -0.9012163281440735 0.4381616413593292 0.24658378958702087 8.22315502166748 4.38743782043457 0.29256463050842285 0.7119172215461731 -2.121812582015991 0.19138085842132568 3.602886199951172 0.9840962886810303 0.02592344582080841 0.9244177341461182 1.1886407136917114 0.6356890797615051 10.617141723632812 1.1746128797531128 0.2887318432331085 -0.18744482100009918 -0.4548565745353699 0.401326447725296 2.398695230484009 -0.5451973676681519 -1.4255667924880981 0.2715612053871155 0.7513160705566406 0.5830307602882385 -63.98336410522461 52.66488265991211 -7.930913925170898 28.183473587036133 -34.95907974243164 -77.99259948730469 2.2374424934387207 -22.513526916503906 4.173825263977051 -1.0500749349594116 -0.6293070316314697 0.46387845277786255 -1.7447359561920166 -2.1687052249908447 -1.5262640714645386 -0.2505461871623993 0.9224898815155029 2.2115390300750732 -7.023300647735596 4.1177449226379395 -1.145926594734192 0.42983880639076233 -0.0825628787279129 -0.1790594458580017 -3.2017571926116943 1.089489459991455 0.6550854444503784 1.6914020776748657 0.9347609877586365 -0.38782501220703125 -9.73922061920166 0.8698177933692932 -0.22082625329494476 -0.15471528470516205 1.342360496520996 -0.20656093955039978 -0.5089349150657654 -1.4489506483078003 0.6379903554916382 0.16535145044326782 -0.9343735575675964 -1.0858635902404785 -22.500377655029297 -37.747371673583984 -12.97531795501709 -1.2539488077163696 59.41211700439453 2.6558754444122314 -1.0423725843429565 -13.359450340270996 -7.363299369812012 0.4329443573951721 -0.46460098028182983 -0.2424413412809372 56.16941833496094 -56.354427337646484 40.67228317260742 19.63478660583496 88.58472442626953 -22.340349197387695 -0.46141159534454346 -16.8548641204834 7.033665657043457
-56.15279842168093 54.83643412590027 -44.938604440540075 -124.46257019042969 75.91356658935547 -158.942626953125 3.458817958831787 22.1373291015625 -4.4561614990234375 9.524706840515137 -12.223677635192871 0.2052793651819229 -10.08047103881836 21.27315330505371 -16.28321075439453 20.30668830871582 -33.37087631225586 -29.66558265686035 0.7525918483734131 0.8438219428062439 -0.8258931040763855 0.12910111248493195 0.9807454347610474 -0.2211296409368515 -1.7228437662124634 0.39331620931625366 1.615482211112976 52.93883514404297 27.089181900024414 -4.966911315917969 -28.523244857788086 -37.00823974609375 78.5470962524414 -0.6205474734306335 -14.82519817352295 -3.344416618347168 -1.7300277948379517 -1.0701289176940918 1.3678972721099854 1.2096880674362183 -0.6472751498222351 -0.24163268506526947 -1.0279488563537598 0.38292643427848816 0.1844051480293274 8.281813621520996 4.610406875610352 0.39465638995170593 0.5715682506561279 -2.1124958992004395 0.2948357164859772 3.544668436050415 1.053268313407898 -0.013477295637130737 1.1028468608856201 1.0238587856292725 0.643470287322998 10.584354400634766 1.21039617061615 0.254087895154953 -0.2429782897233963 -0.33149096369743347 0.37360337376594543 2.4377858638763428 -0.5925744771957397 -1.4357736110687256 0.29557427763938904 0.9745658040046692 0.5668814182281494 -68.10724639892578 54.631744384765625 -3.514476776123047 28.03106689453125 -35.85760498046875 -79.40296936035156 2.502687454223633 -24.776559829711914 4.796684265136719 -0.8525400161743164 -0.7958698272705078 0.3785744905471802 -1.6285018920898438 -2.365795612335205 -1.614511251449585 -0.1354687660932541 0.9310792684555054 2.2358827590942383 -6.975130558013916 4.500187873840332 -1.109797477722168 0.2286832630634308 -0.018198443576693535 -0.46002891659736633 -3.3094472885131836 1.1199735403060913 0.7073085904121399 1.8152410984039307 0.890108585357666 -0.2158503532409668 -10.118194580078125 0.9020890593528748 -0.20795558393001556 -0.04648049920797348 1.341454267501831 0.00885270070284605 -0.803289532661438 -1.279735803604126 0.6495906710624695 -0.03944459557533264 -0.944908082485199 -1.0192584991455078 -23.595775604248047 -38.78557586669922 -14.455753326416016 -1.7743103504180908 61.403621673583984 2.9196975231170654 -1.0648808479309082 -13.995060920715332 -7.3593668937683105 0.24736382067203522 -0.47522416710853577 0.1557653248310089 56.279640197753906 -56.89104461669922 41.42148971557617 32.650482177734375 89.16654205322266 -35.575443267822266 0.0503215454518795 -18.213171005249023 7.676162242889404
-57.22160171717405 54.9984872341156 -45.29658695682883 -129.91543579101562 73.1450424194336 -153.47633361816406 2.54414439201355 21.99249839782715 -4.392189025878906 9.87050724029541 -12.404714584350586 0.385392963886261 -10.188862800598145 22.071109771728516 -17.526216506958008 20.662580490112305 -34.049171447753906 -31.52311134338379 0.7699156999588013 0.6949345469474792 -0.5920495986938477 0.11082515865564346 0.6986814737319946 -0.34595638513565063 -1.7365456819534302 0.5742682814598083 1.7581100463867188 51.56982421875 26.188556671142578 -2.3614389896392822 -28.3382511138916 -37.51161193847656 79.18534851074219 -0.6214972138404846 -11.932337760925293 -2.887967824935913 -1.6867084503173828 -1.0828344821929932 1.2416653633117676 1.0463718175888062 -0.5834289193153381 -0.3013654053211212 -0.993853747844696 0.36719247698783875 0.042013853788375854 8.345698356628418 4.868814468383789 0.47649356722831726 0.49050605297088623 -2.2768638134002686 0.3825146555900574 3.4710283279418945 1.0965521335601807 0.1443759649991989 1.2775061130523682 0.939545750617981 0.6058381795883179 10.558709144592285 1.291690707206726 0.20497411489486694 -0.3006989359855652 -0.1872289776802063 0.30513811111450195 2.624831199645996 -0.6580881476402283 -1.4329358339309692 0.1914992332458496 1.080588459968567 0.6125856041908264 -74.64110565185547 56.35265350341797 3.2744457721710205 27.809293746948242 -37.17061996459961 -81.54084777832031 2.9578986167907715 -28.26027488708496 5.685555458068848 -0.6543002128601074 -0.9980582594871521 0.31036096811294556 -1.376694679260254 -2.3841793537139893 -1.67061448097229 -0.08303342014551163 0.9119134545326233 2.1335442066192627 -7.125784397125244 4.8357367515563965 -1.0089823007583618 0.1588188111782074 0.016647299751639366 -0.7255721688270569 -3.2901484966278076 1.1391761302947998 0.6799063682556152 1.8991883993148804 0.8044991493225098 0.09438987076282501 -10.411867141723633 0.9396768808364868 -0.1326882243156433 0.12055491656064987 1.2767562866210938 0.156751811504364 -1.0705512762069702 -1.0717501640319824 0.6773011684417725 -0.16552120447158813 -0.808734655380249 -1.004754900932312 -26.221010208129883 -40.553165435791016 -17.159467697143555 -2.4042623043060303 64.11338806152344 3.2966177463531494 -0.8674168586730957 -14.193644523620605 -6.393954753875732 0.07577105611562729 -0.45171859860420227 0.4905315637588501 55.871341705322266 -56.75759506225586 41.444114685058594 34.26292037963867 88.94482421875 -37.31944274902344 0.7799074649810791 -19.852460861206055 8.793505668640137
